# xmcd
#
# Track frame offsets:
#	183
#	19370
#	34978
#	56348
#	75535
#	90973
#	110208
#	123028
#	138210
#	158115
#	181205
#	200790
#	217633
#	233405
#	256158
#	280015
#
# Disc length: 3944 seconds
#
# Revision: 3
# Processed by: cddbd v1.5.2PL0 Copyright (c) Steve Scherf et al.
# Submitted via: audiograbber 1.82.01
#
DISCID=c80f6610
DTITLE=Alligator Records - Living Chicago Blues Vol. 2
DYEAR=1991
DGENRE=Blues
TTITLE0=Lonnie Brooks Blues Band - Don't Answer That Door
TTITLE1=Lonnie Brooks Blues Band - Two Headed Man
TTITLE2=Lonnie Brooks Blues Band - Cold, Lonely Nights
TTITLE3=Lonnie Brooks Blues Band - Move Over, Little Dog
TTITLE4=Johnny "Big Moose" Walker - Would You, Baby?
TTITLE5=Johnny "Big Moose" Walker - Worry, Worry
TTITLE6=Johnny "Big Moose" Walker - Sunnyland Blues
TTITLE7=Johnny "Big Moose" Walker - Cry, Cry Darling
TTITLE8=Magic Slim and the Teardrops - Stranded On The Highway
TTITLE9=Magic Slim and the Teardrops - Dirty Mother For You
TTITLE10=Magic Slim and the Teardrops - Spider In My Stew
TTITLE11=Magic Slim and the Teardrops - Don't Say That No More
TTITLE12=Pinetop Perkins - Take It Easy, Baby
TTITLE13=Pinetop Perkins - Blues After Hours
TTITLE14=Pinetop Perkins - Little Angel Child
TTITLE15=Pinetop Perkins - How Much More Long
EXTD=
EXTT0=
EXTT1=
EXTT2=
EXTT3=
EXTT4=
EXTT5=
EXTT6=
EXTT7=
EXTT8=
EXTT9=
EXTT10=
EXTT11=
EXTT12=
EXTT13=
EXTT14=
EXTT15=
PLAYORDER=
